<?xml version="1.0"?>
<svg version="1.1" xmlns="http://www.w3.org/2000/svg" width="200px" height="40px" style=""><path fill="#0000ff" d="M50.861328125,22.3515625q0-0.90234375,0.0751953125-1.9755859375t0.2666015625-2.1533203125t0.57421875-2.0849609375t0.984375-1.791015625t1.4697265625-1.2509765625t2.0712890625-0.46484375q0.95703125,0,1.763671875,0.369140625t1.408203125,0.998046875t0.9365234375,1.4697265625t0.3349609375,1.7568359375q0,0.24609375-0.3349609375,0.3076171875t-0.4716796875,0.0615234375q-0.24609375,0-0.4716796875-0.041015625t-0.3349609375-0.328125q-0.19140625-0.533203125-0.4033203125-1.12109375t-0.51953125-1.0732421875t-0.7587890625-0.7998046875q-0.41015625-0.2734375-1.0390625-0.2734375l-0.109375,0q-1.1484375,0.02734375-1.708984375,0.8203125t-0.7724609375,1.927734375t-0.2119140625,2.40625l0,2.255859375q0,0.560546875,0.041015625,1.626953125t0.1982421875,2.32421875t0.41015625,2.5634765625t0.68359375,2.37890625t1.0322265625,1.75t1.44921875,0.6767578125q0.751953125,0,1.3125-0.51953125t0.9638671875-1.3330078125t0.68359375-1.818359375t0.46484375-2.0166015625t0.2802734375-1.8798828125t0.150390625-1.4287109375q-0.150390625-0.013671875-0.287109375-0.013671875q-0.642578125,0-1.2578125,0.205078125q-0.779296875,0.232421875-1.55859375,0.232421875q-0.109375,0-0.2939453125-0.013671875t-0.3486328125-0.068359375t-0.2939453125-0.1572265625t-0.1298828125-0.2666015625q0-0.314453125,0.6904296875-0.533203125t1.572265625-0.3759765625t1.7021484375-0.2255859375t1.080078125-0.068359375q0.13671875,0,0.3896484375,0.02734375t0.505859375,0.095703125t0.4306640625,0.1982421875t0.177734375,0.3212890625q0,0.1640625-0.123046875,0.2939453125t-0.3076171875,0.1982421875t-0.3759765625,0.095703125t-0.30078125,0.02734375q0.013671875,0.314453125,0.013671875,0.642578125q0,0.73828125-0.041015625,1.572265625q-0.068359375,1.203125-0.2734375,2.40625t-0.62890625,2.337890625t-1.080078125,2.0029296875t-1.6201171875,1.4013671875t-2.2900390625,0.533203125q-1.44921875,0-2.447265625-0.615234375t-1.626953125-1.640625t-0.9775390625-2.32421875t-0.4990234375-2.6591796875t-0.1845703125-2.6455078125t-0.0341796875-2.32421875z M66.45642578125,25.072265625q0-0.560546875,0.1982421875-0.943359375t0.8408203125-0.3828125q0.24609375,0,0.615234375,0.0751953125t0.423828125,0.3759765625q0.13671875,0.806640625,0.150390625,1.75t0.095703125,1.77734375q0.314453125-0.615234375,0.806640625-1.326171875t1.12109375-1.3125t1.3671875-0.998046875t1.50390625-0.396484375q0.0546875,0,0.205078125,0.041015625t0.2802734375,0.1162109375t0.1572265625,0.1708984375t-0.150390625,0.177734375q-0.0546875,0.1640625-0.232421875,0.1982421875t-0.314453125,0.0341796875q-0.08203125,0-0.259765625-0.068359375q-1.01171875,0.533203125-1.72265625,1.44921875t-1.162109375,2.0302734375t-0.65625,2.3515625t-0.205078125,2.4130859375q0,0.587890625-0.2666015625,0.7109375t-0.8544921875,0.123046875q-0.314453125,0-0.6630859375-0.068359375t-0.4853515625-0.4375q-0.24609375-0.779296875-0.4033203125-1.791015625t-0.2392578125-2.0849609375t-0.1162109375-2.1123046875t-0.0341796875-1.873046875z M75.8991796875,29.16015625q0-0.779296875,0.1982421875-1.6064453125t0.62890625-1.490234375t1.0869140625-1.080078125t1.5859375-0.4169921875q0.697265625,0,1.4697265625,0.2392578125t1.4150390625,0.68359375t1.0458984375,1.0869140625t0.4033203125,1.435546875q0,0.95703125-0.3486328125,1.818359375t-0.9775390625,1.5380859375t-1.4697265625,1.06640625t-1.8251953125,0.3896484375q-0.806640625,0-1.408203125-0.2939453125t-1.0048828125-0.7861328125t-0.6015625-1.162109375t-0.1982421875-1.421875z M77.9089453125,29.1328125q0,0.24609375,0.0751953125,0.724609375t0.2255859375,0.9365234375t0.3896484375,0.79296875t0.5810546875,0.3076171875q0.724609375-0.08203125,1.1962890625-0.4716796875t0.765625-0.9501953125t0.41015625-1.216796875t0.1162109375-1.244140625q0-0.751953125-0.2939453125-1.2578125t-0.9638671875-0.8203125q0,0.02734375,0.02734375,0.02734375t0.02734375-0.02734375l-0.341796875-0.08203125q-0.13671875-0.0546875-0.3349609375-0.123046875t-0.3896484375-0.30078125q-0.533203125,0.19140625-0.8271484375,0.4921875t-0.4443359375,0.7314453125t-0.1845703125,1.0322265625t-0.0341796875,1.44921875z M85.69740234375,27.697265625q0-0.2734375,0.0615234375-0.724609375t0.1435546875-0.8955078125t0.19140625-0.8271484375t0.259765625-0.4921875q0.109375-0.109375,0.3759765625-0.21875t0.560546875-0.1572265625t0.546875,0.041015625t0.3076171875,0.3623046875q-0.19140625,0.24609375-0.3486328125,0.8408203125t-0.2392578125,1.3193359375q-0.068359375,0.615234375-0.068359375,1.271484375l0,0.232421875q0.013671875,0.765625,0.13671875,1.408203125t0.3759765625,1.0595703125t0.7041015625,0.4169921875q0.95703125,0,1.75-0.8818359375t1.408203125-2.1533203125t1.080078125-2.7001953125t0.79296875-2.4951171875q0.08203125-0.314453125,0.3896484375-0.423828125t0.6630859375-0.0751953125t0.6357421875,0.1708984375t0.3349609375,0.328125q-0.2734375,2.296875-0.4306640625,4.59375t-0.1572265625,4.62109375q0,0.451171875,0.041015625,0.8271484375t-0.041015625,0.642578125t-0.3623046875,0.423828125t-0.8955078125,0.1572265625q-0.13671875,0-0.3486328125-0.02734375t-0.4375-0.0888671875t-0.3828125-0.1845703125t-0.1572265625-0.287109375q0-1.01171875,0.0751953125-2.078125t0.2119140625-2.064453125q-0.369140625,0.533203125-0.8134765625,1.0595703125t-0.9775390625,0.9501953125t-1.1484375,0.6767578125t-1.326171875,0.2529296875q-1.01171875,0-1.5927734375-0.478515625t-0.875-1.1962890625t-0.369140625-1.5654296875t-0.0751953125-1.640625z M98.558125,23.951171875q0-0.642578125,0.2529296875-0.9501953125t0.9228515625-0.3076171875q0.396484375,0,0.7451171875,0.1640625t0.3486328125,0.697265625q0.0546875,0.779296875,0.0546875,1.6337890625t0.150390625,1.6201171875q0.341796875-0.560546875,0.7724609375-1.12109375t0.9501953125-0.998046875t1.134765625-0.7041015625t1.33984375-0.2666015625q0.984375,0,1.66796875,0.41015625t1.1279296875,1.06640625t0.642578125,1.4833984375t0.1982421875,1.6611328125q0,1.28515625-0.3896484375,2.0986328125t-1.0322265625,1.2783203125t-1.4560546875,0.62890625t-1.6337890625,0.1640625q-0.724609375,0-1.353515625-0.2802734375t-0.875-1.0595703125q0-0.21875,0.3212890625-0.2734375t0.4580078125-0.0546875q0.451171875,0,0.669921875,0.24609375q0.1640625,0.19140625,0.3623046875,0.3896484375t0.4169921875,0.1982421875q0.423828125,0,0.888671875-0.2392578125t0.8544921875-0.62890625t0.65625-0.9228515625t0.2666015625-1.09375q0-0.478515625-0.08203125-1.189453125t-0.2802734375-1.3671875t-0.546875-1.134765625t-0.8818359375-0.478515625q-0.806640625,0-1.4560546875,0.73828125t-1.080078125,1.77734375t-0.669921875,2.16015625t-0.2392578125,1.873046875t0.095703125,1.900390625t0.1982421875,2.3857421875t0.1982421875,2.3857421875t0.095703125,1.900390625q0,0.19140625-0.1572265625,0.3076171875t-0.3759765625,0.1845703125t-0.4443359375,0.08203125t-0.3349609375,0.013671875q-0.369140625,0-0.7724609375-0.08203125t-0.5537109375-0.505859375q-0.19140625-0.669921875-0.35546875-1.9072265625t-0.2939453125-2.734375t-0.2255859375-3.14453125t-0.1640625-3.1787109375t-0.1025390625-2.802734375t-0.0341796875-2.0234375z M111.39150390625,21.39453125l0.08203125-0.1640625q0.21875-0.19140625,0.669921875-0.57421875t0.984375-0.8681640625t1.107421875-1.0185546875t1.0322265625-1.0390625t0.751953125-0.9501953125t0.2939453125-0.7587890625q0-0.1640625,0.1572265625-0.2939453125t0.35546875-0.2119140625t0.4033203125-0.109375t0.35546875-0.02734375q0.314453125,0,0.7177734375,0.095703125t0.5400390625,0.46484375q-0.314453125,2.720703125-0.5810546875,5.3388671875t-0.2666015625,5.3251953125q0,1.845703125,0.2255859375,3.6845703125t0.2255859375,3.6298828125q0,0.21875-0.1982421875,0.3486328125t-0.4443359375,0.1982421875t-0.5126953125,0.095703125t-0.4169921875,0.02734375q-0.642578125,0-0.9501953125-0.2255859375t-0.4306640625-0.57421875t-0.123046875-0.79296875t-0.02734375-0.9228515625q-0.0546875-0.984375-0.1025390625-1.9482421875t-0.0478515625-1.9482421875q0-2.2421875,0.1162109375-4.4638671875t0.4716796875-4.4365234375q-0.314453125,0.314453125-0.7451171875,0.7314453125t-0.9296875,0.806640625t-1.0185546875,0.65625t-0.970703125,0.2666015625q-0.13671875,0-0.4169921875-0.0546875t-0.3076171875-0.287109375z M121.6408984375,23.25390625q0-1.2578125,0.1298828125-2.6591796875t0.6220703125-2.5908203125t1.4287109375-1.9755859375t2.5634765625-0.7861328125q0.560546875,0,1.203125,0.177734375t0.888671875,0.73828125q1.28515625,0.314453125,2.0986328125,1.1689453125t1.2646484375,1.9755859375t0.6015625,2.37890625t0.150390625,2.37890625q0,0.806640625-0.095703125,1.873046875t-0.3212890625,2.16015625t-0.62890625,2.1396484375t-0.9912109375,1.873046875t-1.4150390625,1.3330078125t-1.9208984375,0.505859375q-1.203125,0-2.0986328125-0.546875t-1.5107421875-1.4287109375t-0.998046875-2.0302734375t-0.6015625-2.337890625t-0.2939453125-2.32421875t-0.0751953125-2.0234375z M124.1155078125,22.40625q0,1.791015625,0.21875,3.7119140625t0.875,3.6025390625q0.341796875-1.654296875,0.7451171875-3.212890625t0.806640625-3.0693359375t0.79296875-3.0078125t0.7041015625-3.0009765625l-0.109375-0.068359375q-0.2734375,0.0546875-0.669921875,0.013671875t-0.451171875-0.396484375q-0.21875-0.02734375-0.478515625-0.1708984375t-0.109375-0.6767578125q-0.533203125,0-0.916015625,0.369140625t-0.62890625,0.943359375t-0.4033203125,1.28515625t-0.2392578125,1.408203125t-0.109375,1.298828125t-0.02734375,0.970703125z M126.2619921875,31.83984375q0.08203125,0.13671875,0.1982421875,0.2939453125t0.2392578125,0.30078125t0.2666015625,0.2392578125t0.3076171875,0.068359375q0.724609375-0.109375,1.244140625-0.62890625t0.8681640625-1.3056640625t0.546875-1.75t0.2939453125-1.94140625t0.123046875-1.8935546875t0.02734375-1.5859375q0-1.2578125-0.205078125-2.48828125t-0.79296875-2.32421875q-0.806640625,3.25390625-1.4697265625,6.5693359375t-1.6474609375,6.4462890625z"/><path fill="#" d=""/></svg>
